<svg id="Group_4" data-name="Group 4" xmlns="http://www.w3.org/2000/svg" width="53.341" height="53.119" viewBox="0 0 53.341 53.119">
  <path id="Path_1" data-name="Path 1" d="M-1889.387,468.8a26.671,26.671,0,0,0-26.671,26.671,26.653,26.653,0,0,0,22.222,26.27V501.04h-6.434v-7.451h6.434v-5.494c0-6.375,3.893-9.849,9.581-9.849a52.983,52.983,0,0,1,5.745.292V485.2h-3.946c-3.091,0-3.689,1.469-3.689,3.627v4.755h7.38l-.963,7.451h-6.417v20.888a26.665,26.665,0,0,0,23.427-26.456A26.67,26.67,0,0,0-1889.387,468.8Z" transform="translate(1916.058 -468.805)" fill="#51c9b5"/>
</svg>
