<svg id="Group_7" data-name="Group 7" xmlns="http://www.w3.org/2000/svg" width="56.515" height="56.515" viewBox="0 0 56.515 56.515">
  <path id="Path_7" data-name="Path 7" d="M-1888.4,350.24a28.261,28.261,0,0,0-28.258,28.258,28.261,28.261,0,0,0,28.258,28.258,28.261,28.261,0,0,0,28.258-28.258A28.261,28.261,0,0,0-1888.4,350.24Zm-8.211,42.717h-6.883v-20.7h6.883Zm-3.442-23.531h-.044a3.563,3.563,0,0,1-3.8-3.577,3.591,3.591,0,0,1,3.894-3.577,3.576,3.576,0,0,1,3.847,3.577A3.59,3.59,0,0,1-1900.057,369.426Zm28.257,23.531h-6.881V381.881c0-2.784-1-4.682-3.486-4.682a3.766,3.766,0,0,0-3.531,2.517,4.7,4.7,0,0,0-.227,1.679v11.562h-6.883s.091-18.762,0-20.7h6.883v2.932a6.831,6.831,0,0,1,6.2-3.418c4.528,0,7.923,2.96,7.923,9.318Z" transform="translate(1916.662 -350.24)" fill="#51c9b5"/>
</svg>
