<svg id="Group_16" data-name="Group 16" xmlns="http://www.w3.org/2000/svg" width="53.017" height="53.017" viewBox="0 0 53.017 53.017">
  <path id="Path_54" data-name="Path 54" d="M88.847,350.24a26.509,26.509,0,1,0,26.509,26.509A26.512,26.512,0,0,0,88.847,350.24Zm-7.7,40.073H74.687V370.89h6.457Zm-3.229-22.075h-.042a3.688,3.688,0,1,1,.042,0Zm26.507,22.075H97.967v-10.39c0-2.612-.934-4.392-3.27-4.392a3.534,3.534,0,0,0-3.312,2.361,4.412,4.412,0,0,0-.212,1.575v10.846H84.716s.085-17.6,0-19.423h6.457v2.75a6.408,6.408,0,0,1,5.818-3.206c4.247,0,7.432,2.777,7.432,8.742Z" transform="translate(-62.338 -350.24)" fill="#fff"/>
</svg>
