<svg id="Group_15" data-name="Group 15" xmlns="http://www.w3.org/2000/svg" width="54.395" height="54.396" viewBox="0 0 54.395 54.396">
  <path id="Path_52" data-name="Path 52" d="M88.3,290.073a27.2,27.2,0,1,0,27.2,27.2A27.2,27.2,0,0,0,88.3,290.073Zm.577,43.033h-.007a16.274,16.274,0,0,1-7.779-1.981l-8.629,2.264,2.31-8.433a16.279,16.279,0,1,1,14.1,8.15Z" transform="translate(-61.107 -290.073)" fill="#fff"/>
  <path id="Path_53" data-name="Path 53" d="M86.642,301.212a13.532,13.532,0,0,0-11.467,20.723l.322.512-1.368,4.992,5.121-1.344.494.293a13.493,13.493,0,0,0,6.886,1.885h.006a13.53,13.53,0,0,0,.006-27.061Zm7.958,19.34a4.2,4.2,0,0,1-2.746,1.934,5.575,5.575,0,0,1-2.562-.161,23.712,23.712,0,0,1-2.32-.856c-4.08-1.762-6.744-5.869-6.948-6.14a7.916,7.916,0,0,1-1.661-4.207,4.556,4.556,0,0,1,1.423-3.391,1.5,1.5,0,0,1,1.085-.509c.271,0,.542,0,.78.014s.585-.095.915.7c.338.814,1.151,2.816,1.254,3.019a.748.748,0,0,1,.034.712,11.64,11.64,0,0,1-1.017,1.391c-.18.223-.415.423-.178.83a12.268,12.268,0,0,0,2.263,2.817,11.136,11.136,0,0,0,3.27,2.018c.407.2.645.17.882-.1s1.016-1.187,1.287-1.594.542-.338.915-.2,2.373,1.119,2.78,1.322.678.305.779.475A3.4,3.4,0,0,1,94.6,320.552Z" transform="translate(-58.862 -287.989)" fill="#fff"/>
</svg>
