<svg id="Group_14" data-name="Group 14" xmlns="http://www.w3.org/2000/svg" width="53.956" height="53.956" viewBox="0 0 53.956 53.956">
  <path id="Path_49" data-name="Path 49" d="M90,431.671a5.163,5.163,0,1,1-5.164-5.164A5.163,5.163,0,0,1,90,431.671Z" transform="translate(-57.854 -404.693)" fill="#fff"/>
  <path id="Path_50" data-name="Path 50" d="M98.1,423.723a5.143,5.143,0,0,0-2.94-2.94,8.6,8.6,0,0,0-2.876-.533c-1.633-.075-2.124-.09-6.261-.09s-4.626.015-6.259.09a8.6,8.6,0,0,0-2.876.533,5.143,5.143,0,0,0-2.94,2.94,8.566,8.566,0,0,0-.533,2.876c-.075,1.633-.09,2.124-.09,6.261s.015,4.626.09,6.259A8.558,8.558,0,0,0,73.943,442a5.125,5.125,0,0,0,2.94,2.94,8.568,8.568,0,0,0,2.876.533c1.633.075,2.122.09,6.259.09s4.627-.015,6.261-.09a8.568,8.568,0,0,0,2.876-.533A5.132,5.132,0,0,0,98.1,442a8.589,8.589,0,0,0,.533-2.876c.075-1.633.09-2.124.09-6.259s-.015-4.627-.09-6.261A8.6,8.6,0,0,0,98.1,423.723ZM86.019,440.814a7.955,7.955,0,1,1,7.956-7.956A7.955,7.955,0,0,1,86.019,440.814Zm8.27-14.366a1.859,1.859,0,1,1,1.859-1.859A1.86,1.86,0,0,1,94.29,426.448Z" transform="translate(-59.042 -405.881)" fill="#fff"/>
  <path id="Path_51" data-name="Path 51" d="M88.27,408.131a26.978,26.978,0,1,0,26.979,26.978A26.981,26.981,0,0,0,88.27,408.131Zm15.4,33.365a11.339,11.339,0,0,1-.721,3.759,7.92,7.92,0,0,1-4.53,4.531,11.375,11.375,0,0,1-3.761.721c-1.652.075-2.179.093-6.386.093s-4.735-.018-6.388-.093a11.367,11.367,0,0,1-3.759-.721,7.915,7.915,0,0,1-4.531-4.531,11.366,11.366,0,0,1-.719-3.759c-.077-1.652-.094-2.181-.094-6.388s.017-4.734.093-6.386a11.388,11.388,0,0,1,.719-3.761,7.927,7.927,0,0,1,4.531-4.53,11.384,11.384,0,0,1,3.761-.721c1.652-.075,2.179-.094,6.386-.094s4.735.019,6.388.095a11.391,11.391,0,0,1,3.761.718,7.927,7.927,0,0,1,4.53,4.531,11.354,11.354,0,0,1,.721,3.761c.075,1.652.093,2.179.093,6.386S103.743,439.844,103.668,441.5Z" transform="translate(-61.292 -408.131)" fill="#fff"/>
</svg>
