<svg id="Group_6" data-name="Group 6" xmlns="http://www.w3.org/2000/svg" width="57.985" height="57.984" viewBox="0 0 57.985 57.984">
  <path id="Path_5" data-name="Path 5" d="M-1888.9,290.073a29,29,0,0,0-28.992,28.992,29,29,0,0,0,28.992,28.993,29,29,0,0,0,28.993-28.993A29,29,0,0,0-1888.9,290.073Zm.615,45.872h-.008a17.348,17.348,0,0,1-8.292-2.112l-9.2,2.413,2.462-8.989a17.3,17.3,0,0,1-2.317-8.673,17.373,17.373,0,0,1,17.353-17.345,17.24,17.24,0,0,1,12.274,5.087,17.243,17.243,0,0,1,5.078,12.272A17.376,17.376,0,0,1-1888.286,335.945Z" transform="translate(1917.893 -290.073)" fill="#51c9b5"/>
  <path id="Path_6" data-name="Path 6" d="M-1891.465,301.212a14.443,14.443,0,0,0-14.429,14.418,14.378,14.378,0,0,0,2.206,7.672l.343.545-1.458,5.321,5.459-1.432.526.313a14.383,14.383,0,0,0,7.341,2.009h.006a14.439,14.439,0,0,0,14.422-14.417,14.327,14.327,0,0,0-4.22-10.2A14.324,14.324,0,0,0-1891.465,301.212Zm8.483,20.616a4.472,4.472,0,0,1-2.927,2.061,5.943,5.943,0,0,1-2.731-.172,25.268,25.268,0,0,1-2.472-.912c-4.349-1.878-7.189-6.256-7.406-6.545a8.437,8.437,0,0,1-1.771-4.485,4.856,4.856,0,0,1,1.517-3.615,1.6,1.6,0,0,1,1.156-.543c.288,0,.578,0,.831.015s.624-.1.976.744c.361.868,1.227,3,1.336,3.218a.8.8,0,0,1,.037.759,12.418,12.418,0,0,1-1.084,1.483c-.192.238-.443.451-.19.885a13.07,13.07,0,0,0,2.412,3,11.867,11.867,0,0,0,3.486,2.151c.434.216.687.181.94-.109s1.083-1.265,1.372-1.7.578-.361.976-.216,2.53,1.193,2.964,1.41.723.325.83.506A3.618,3.618,0,0,1-1882.981,321.828Z" transform="translate(1921.078 -287.117)" fill="#51c9b5"/>
</svg>
