<svg id="email" xmlns="http://www.w3.org/2000/svg" width="94.262" height="98.437" viewBox="0 0 94.262 98.437">
  <path id="Path_4416" data-name="Path 4416" d="M173.34,144H133.625l19.858,17.021Zm0,0" transform="translate(-106.352 -112.36)" fill="#439c84"/>
  <path id="Path_4417" data-name="Path 4417" d="M142.851,172.421a1.755,1.755,0,0,1-1.144-.424L120,153.391v33.093h45.7V153.391L144,172A1.755,1.755,0,0,1,142.851,172.421Zm0,0" transform="translate(-95.72 -119.687)" fill="#439c84"/>
  <path id="Path_4418" data-name="Path 4418" d="M47.131,0C21.1,0,0,22.036,0,49.218S21.1,98.437,47.131,98.437,94.262,76.4,94.262,49.218C94.232,22.049,73.148.031,47.131,0ZM72.38,68.554A1.722,1.722,0,0,1,70.7,70.312H23.565a1.722,1.722,0,0,1-1.683-1.758V29.883a1.722,1.722,0,0,1,1.683-1.758H70.7a1.722,1.722,0,0,1,1.683,1.758Zm0,0" fill="#439c84"/>
</svg>
