<svg id="phone-call" xmlns="http://www.w3.org/2000/svg" width="94.262" height="94.262" viewBox="0 0 94.262 94.262">
  <g id="Group_2025" data-name="Group 2025" transform="translate(0 0)">
    <path id="Path_4415" data-name="Path 4415" d="M80.452,13.8A47.131,47.131,0,1,0,94.262,47.12,47.131,47.131,0,0,0,80.452,13.8ZM71.378,65.652l-.006.006v-.016l-2.388,2.372a12.568,12.568,0,0,1-11.861,3.393,41.762,41.762,0,0,1-12.128-5.436,56.037,56.037,0,0,1-9.568-7.714,56.467,56.467,0,0,1-7.148-8.672,43.984,43.984,0,0,1-5.373-10.872A12.568,12.568,0,0,1,26.047,25.88l2.8-2.8a2,2,0,0,1,2.822-.006l.006.006L40.5,31.913a2,2,0,0,1,.006,2.822l-.006.006-5.184,5.184a4.226,4.226,0,0,0-.44,5.5,60.632,60.632,0,0,0,6.206,7.243,60.26,60.26,0,0,0,8.169,6.865,4.257,4.257,0,0,0,5.436-.471L59.7,53.97a2,2,0,0,1,2.822-.006l.006.006,8.845,8.861A2,2,0,0,1,71.378,65.652Z" transform="translate(0 0)" fill="#439c84"/>
  </g>
</svg>
