<svg id="Group_5" data-name="Group 5" xmlns="http://www.w3.org/2000/svg" width="57.516" height="57.516" viewBox="0 0 57.516 57.516">
  <path id="Path_2" data-name="Path 2" d="M-1888.323,432.011a5.5,5.5,0,0,1-5.5,5.5,5.5,5.5,0,0,1-5.5-5.5,5.5,5.5,0,0,1,5.5-5.5A5.5,5.5,0,0,1-1888.323,432.011Z" transform="translate(1922.585 -403.254)" fill="#51c9b5"/>
  <path id="Path_3" data-name="Path 3" d="M-1879.268,423.958a5.111,5.111,0,0,0-1.236-1.9,5.1,5.1,0,0,0-1.9-1.236,9.165,9.165,0,0,0-3.066-.568c-1.741-.08-2.264-.1-6.674-.1s-4.931.016-6.673.1a9.165,9.165,0,0,0-3.066.568,5.093,5.093,0,0,0-1.9,1.236,5.108,5.108,0,0,0-1.236,1.9,9.139,9.139,0,0,0-.568,3.066c-.08,1.741-.1,2.264-.1,6.674s.017,4.931.1,6.672a9.131,9.131,0,0,0,.568,3.066,5.136,5.136,0,0,0,1.235,1.9,5.121,5.121,0,0,0,1.9,1.235,9.133,9.133,0,0,0,3.066.568c1.741.08,2.263.1,6.673.1s4.933-.016,6.674-.1a9.134,9.134,0,0,0,3.066-.568,5.47,5.47,0,0,0,3.135-3.134,9.163,9.163,0,0,0,.568-3.066c.08-1.741.1-2.264.1-6.672s-.017-4.933-.1-6.674A9.171,9.171,0,0,0-1879.268,423.958Zm-12.874,18.219a8.48,8.48,0,0,1-8.479-8.481,8.479,8.479,0,0,1,8.479-8.479,8.48,8.48,0,0,1,8.481,8.479A8.481,8.481,0,0,1-1892.143,442.177Zm8.816-15.314a1.983,1.983,0,0,1-1.983-1.982,1.983,1.983,0,0,1,1.983-1.982,1.982,1.982,0,0,1,1.982,1.982A1.983,1.983,0,0,1-1883.327,426.863Z" transform="translate(1920.9 -404.939)" fill="#51c9b5"/>
  <path id="Path_4" data-name="Path 4" d="M-1888.95,408.131a28.761,28.761,0,0,0-28.758,28.758,28.761,28.761,0,0,0,28.758,28.759,28.762,28.762,0,0,0,28.759-28.759A28.761,28.761,0,0,0-1888.95,408.131Zm16.415,35.567a12.091,12.091,0,0,1-.768,4.008,8.444,8.444,0,0,1-4.829,4.83,12.128,12.128,0,0,1-4.009.768c-1.761.08-2.323.1-6.808.1s-5.048-.019-6.809-.1a12.12,12.12,0,0,1-4.008-.768,8.1,8.1,0,0,1-2.926-1.9,8.1,8.1,0,0,1-1.9-2.926,12.119,12.119,0,0,1-.767-4.008c-.082-1.761-.1-2.325-.1-6.809s.018-5.046.1-6.808a12.141,12.141,0,0,1,.767-4.009,8.106,8.106,0,0,1,1.906-2.924,8.086,8.086,0,0,1,2.924-1.9,12.135,12.135,0,0,1,4.009-.768c1.761-.08,2.323-.1,6.808-.1s5.048.02,6.809.1a12.142,12.142,0,0,1,4.009.766,8.111,8.111,0,0,1,2.925,1.906,8.09,8.09,0,0,1,1.9,2.924,12.107,12.107,0,0,1,.768,4.009c.08,1.761.1,2.323.1,6.808S-1872.456,441.936-1872.536,443.7Z" transform="translate(1917.708 -408.131)" fill="#51c9b5"/>
</svg>
